ffmpeg started on 2016-12-06 at 08:16:54
Report written to "Output/x264/results/ffmpeg/crowd_run_2160p50fast8000k.log"
Command line:
Tools/ffmpeg/ffmpeg -benchmark -y -i Input/y4m/crowd_run_2160p50.y4m -c:v libx264 -preset fast -b:v 8000k -an Output/x264/encoded/crowd_run_2160p50fast8000k.mkv
ffmpeg version N-82227-gdb23fde Copyright (c) 2000-2016 the FFmpeg developers
  built with gcc 5.4.0 (Ubuntu 5.4.0-6ubuntu1~16.04.2) 20160609
  configuration: --prefix=/home/jaroslav/ffmpeg_build --pkg-config-flags=--static --extra-cflags=-I/home/jaroslav/ffmpeg_build/include --extra-ldflags=-L/home/jaroslav/ffmpeg_build/lib --bindir=/home/jaroslav/bin --enable-gpl --enable-libass --enable-libfdk-aac --enable-libfreetype --enable-libmp3lame --enable-libopus --enable-libtheora --enable-libvorbis --enable-libvpx --enable-libx264 --enable-libx265 --enable-nvenc --enable-libmfx --enable-libxvid --enable-libgsm --enable-libopencore-amrnb --enable-version3 --enable-nonfree
  libavutil      55. 35.100 / 55. 35.100
  libavcodec     57. 66.101 / 57. 66.101
  libavformat    57. 57.100 / 57. 57.100
  libavdevice    57.  2.100 / 57.  2.100
  libavfilter     6. 66.100 /  6. 66.100
  libswscale      4.  3.100 /  4.  3.100
  libswresample   2.  4.100 /  2.  4.100
  libpostproc    54.  2.100 / 54.  2.100
Input #0, yuv4mpegpipe, from 'Input/y4m/crowd_run_2160p50.y4m':
  Duration: 00:00:10.00, start: 0.000000, bitrate: 4976642 kb/s
    Stream #0:0: Video: rawvideo (I420 / 0x30323449), yuv420p(progressive), 3840x2160, SAR 1:1 DAR 16:9, 50 fps, 50 tbr, 50 tbn, 50 tbc
[libx264 @ 0x2d471c0] using SAR=1/1
[libx264 @ 0x2d471c0] using cpu capabilities: MMX2 SSE2Fast SSSE3 SSE4.2 AVX FMA3 AVX2 LZCNT BMI2
[libx264 @ 0x2d471c0] profile High, level 5.2
[libx264 @ 0x2d471c0] 264 - core 148 - H.264/MPEG-4 AVC codec - Copyleft 2003-2016 - http://www.videolan.org/x264.html - options: cabac=1 ref=2 deblock=1:0:0 analyse=0x3:0x113 me=hex subme=6 psy=1 psy_rd=1.00:0.00 mixed_ref=1 me_range=16 chroma_me=1 trellis=1 8x8dct=1 cqm=0 deadzone=21,11 fast_pskip=1 chroma_qp_offset=-2 threads=6 lookahead_threads=1 sliced_threads=0 nr=0 decimate=1 interlaced=0 bluray_compat=0 constrained_intra=0 bframes=3 b_pyramid=2 b_adapt=1 b_bias=0 direct=1 weightb=1 open_gop=0 weightp=1 keyint=250 keyint_min=25 scenecut=40 intra_refresh=0 rc_lookahead=30 rc=abr mbtree=1 bitrate=8000 ratetol=1.0 qcomp=0.60 qpmin=0 qpmax=69 qpstep=4 ip_ratio=1.40 aq=1:1.00
Output #0, matroska, to 'Output/x264/encoded/crowd_run_2160p50fast8000k.mkv':
  Metadata:
    encoder         : Lavf57.57.100
    Stream #0:0: Video: h264 (libx264) (H264 / 0x34363248), yuv420p, 3840x2160 [SAR 1:1 DAR 16:9], q=-1--1, 8000 kb/s, 50 fps, 1k tbn, 50 tbc
    Metadata:
      encoder         : Lavc57.66.101 libx264
    Side data:
      cpb: bitrate max/min/avg: 0/0/8000000 buffer size: 0 vbv_delay: -1
Stream mapping:
  Stream #0:0 -> #0:0 (rawvideo (native) -> h264 (libx264))
Press [q] to stop, [?] for help
frame=   17 fps=0.0 q=0.0 size=       0kB time=00:00:00.00 bitrate=N/A speed=   0x    frame=   32 fps= 24 q=0.0 size=       0kB time=00:00:00.00 bitrate=N/A speed=   0x    frame=   37 fps= 12 q=0.0 size=       0kB time=00:00:00.00 bitrate=N/A speed=   0x    frame=   43 fps= 12 q=36.0 size=       1kB time=00:00:00.00 bitrate=5872.0kbits/s speed=0.000269x    frame=   49 fps= 12 q=53.0 size=       1kB time=00:00:00.12 bitrate=  48.5kbits/s speed=0.0285x    frame=   55 fps= 12 q=53.0 size=       1kB time=00:00:00.24 bitrate=  24.4kbits/s speed=0.0506x    frame=   63 fps= 12 q=51.0 size=       1kB time=00:00:00.40 bitrate=  14.6kbits/s speed=0.0757x    frame=   72 fps= 12 q=51.0 size=       1kB time=00:00:00.58 bitrate=  10.1kbits/s speed=0.0978x    frame=   80 fps= 12 q=51.0 size=       1kB time=00:00:00.74 bitrate=   7.9kbits/s speed=0.115x    frame=   88 fps= 12 q=51.0 size=       1kB time=00:00:00.90 bitrate=   6.5kbits/s speed=0.128x    frame=   96 fps= 13 q=51.0 size=       1kB time=00:00:01.06 bitrate=   5.5kbits/s speed=0.14x    frame=  106 fps= 13 q=51.0 size=       1kB time=00:00:01.26 bitrate=   4.7kbits/s speed=0.155x    frame=  112 fps= 13 q=50.0 size=       1kB time=00:00:01.38 bitrate=   4.3kbits/s speed=0.159x    frame=  122 fps= 13 q=50.0 size=       1kB time=00:00:01.58 bitrate=   3.7kbits/s speed=0.171x    frame=  129 fps= 13 q=50.0 size=       1kB time=00:00:01.72 bitrate=   3.4kbits/s speed=0.176x    frame=  136 fps= 13 q=50.0 size=       1kB time=00:00:01.86 bitrate=   3.2kbits/s speed=0.181x    frame=  144 fps= 13 q=50.0 size=       1kB time=00:00:02.02 bitrate=   2.9kbits/s speed=0.187x    frame=  153 fps= 13 q=50.0 size=       1kB time=00:00:02.20 bitrate=   2.7kbits/s speed=0.194x    frame=  161 fps= 14 q=50.0 size=       1kB time=00:00:02.36 bitrate=   2.5kbits/s speed=0.199x    frame=  170 fps= 14 q=49.0 size=       1kB time=00:00:02.54 bitrate=   2.3kbits/s speed=0.204x    frame=  177 fps= 14 q=49.0 size=       1kB time=00:00:02.68 bitrate=   2.2kbits/s speed=0.207x    frame=  185 fps= 14 q=49.0 size=       1kB time=00:00:02.84 bitrate=   2.1kbits/s speed=0.21x    frame=  192 fps= 14 q=49.0 size=       1kB time=00:00:02.98 bitrate=   2.0kbits/s speed=0.212x    frame=  200 fps= 14 q=49.0 size=       1kB time=00:00:03.14 bitrate=   1.9kbits/s speed=0.215x    frame=  209 fps= 14 q=49.0 size=       1kB time=00:00:03.32 bitrate=   1.8kbits/s speed=0.22x    frame=  216 fps= 14 q=49.0 size=       1kB time=00:00:03.46 bitrate=   1.7kbits/s speed=0.222x    frame=  224 fps= 14 q=49.0 size=       1kB time=00:00:03.62 bitrate=   1.6kbits/s speed=0.225x    frame=  232 fps= 14 q=49.0 size=       1kB time=00:00:03.78 bitrate=   1.6kbits/s speed=0.227x    frame=  239 fps= 14 q=49.0 size=       1kB time=00:00:03.92 bitrate=   1.5kbits/s speed=0.229x    frame=  247 fps= 14 q=49.0 size=       1kB time=00:00:04.08 bitrate=   1.4kbits/s speed=0.231x    frame=  253 fps= 14 q=49.0 size=       1kB time=00:00:04.20 bitrate=   1.4kbits/s speed=0.231x    frame=  261 fps= 14 q=49.0 size=       1kB time=00:00:04.36 bitrate=   1.3kbits/s speed=0.233x    frame=  268 fps= 14 q=49.0 size=       1kB time=00:00:04.50 bitrate=   1.3kbits/s speed=0.234x    frame=  276 fps= 14 q=49.0 size=       1kB time=00:00:04.66 bitrate=   1.3kbits/s speed=0.236x    frame=  283 fps= 14 q=49.0 size=       1kB time=00:00:04.80 bitrate=   1.2kbits/s speed=0.237x    frame=  287 fps= 13 q=49.0 size=       1kB time=00:00:04.88 bitrate=   1.2kbits/s speed=0.229x    frame=  296 fps= 14 q=49.0 size=    5092kB time=00:00:05.06 bitrate=8242.8kbits/s speed=0.232x    frame=  302 fps= 14 q=49.0 size=    5092kB time=00:00:05.18 bitrate=8051.9kbits/s speed=0.232x    frame=  311 fps= 14 q=49.0 size=    5092kB time=00:00:05.36 bitrate=7781.6kbits/s speed=0.234x    frame=  318 fps= 14 q=49.0 size=    5092kB time=00:00:05.50 bitrate=7583.5kbits/s speed=0.235x    frame=  327 fps= 14 q=49.0 size=    5092kB time=00:00:05.68 bitrate=7343.3kbits/s speed=0.236x    frame=  334 fps= 14 q=49.0 size=    5092kB time=00:00:05.82 bitrate=7166.6kbits/s speed=0.237x    frame=  342 fps= 14 q=49.0 size=    5092kB time=00:00:05.98 bitrate=6974.9kbits/s speed=0.238x    frame=  350 fps= 14 q=49.0 size=    5092kB time=00:00:06.14 bitrate=6793.2kbits/s speed=0.239x    frame=  358 fps= 14 q=49.0 size=    5092kB time=00:00:06.30 bitrate=6620.7kbits/s speed=0.24x    frame=  365 fps= 14 q=49.0 size=    5092kB time=00:00:06.44 bitrate=6476.8kbits/s speed=0.24x    frame=  374 fps= 14 q=49.0 size=    5092kB time=00:00:06.62 bitrate=6300.7kbits/s speed=0.242x    frame=  381 fps= 14 q=49.0 size=    5092kB time=00:00:06.76 bitrate=6170.2kbits/s speed=0.243x    frame=  387 fps= 14 q=49.0 size=    5092kB time=00:00:06.88 bitrate=6062.6kbits/s speed=0.243x    frame=  394 fps= 14 q=49.0 size=    5092kB time=00:00:07.02 bitrate=5941.8kbits/s speed=0.243x    frame=  401 fps= 14 q=49.0 size=    5092kB time=00:00:07.16 bitrate=5825.6kbits/s speed=0.244x    frame=  410 fps= 14 q=49.0 size=    5092kB time=00:00:07.34 bitrate=5682.7kbits/s speed=0.244x    frame=  418 fps= 14 q=49.0 size=    5092kB time=00:00:07.50 bitrate=5561.5kbits/s speed=0.245x    frame=  426 fps= 14 q=49.0 size=    5092kB time=00:00:07.66 bitrate=5445.4kbits/s speed=0.246x    frame=  434 fps= 14 q=49.0 size=    5092kB time=00:00:07.82 bitrate=5334.0kbits/s speed=0.246x    frame=  442 fps= 14 q=49.0 size=    5092kB time=00:00:07.98 bitrate=5227.0kbits/s speed=0.247x    frame=  450 fps= 14 q=49.0 size=    5092kB time=00:00:08.14 bitrate=5124.3kbits/s speed=0.248x    frame=  458 fps= 14 q=49.0 size=    5092kB time=00:00:08.30 bitrate=5025.5kbits/s speed=0.248x    frame=  466 fps= 14 q=49.0 size=    5092kB time=00:00:08.46 bitrate=4930.5kbits/s speed=0.249x    frame=  474 fps= 14 q=49.0 size=    5092kB time=00:00:08.62 bitrate=4839.0kbits/s speed=0.249x    frame=  482 fps= 14 q=49.0 size=    5092kB time=00:00:08.78 bitrate=4750.8kbits/s speed=0.25x    frame=  490 fps= 14 q=49.0 size=    5092kB time=00:00:08.94 bitrate=4665.8kbits/s speed=0.25x    frame=  498 fps= 14 q=49.0 size=    5092kB time=00:00:09.10 bitrate=4583.8kbits/s speed=0.251x    frame=  500 fps= 13 q=-1.0 Lsize=   10052kB time=00:00:09.94 bitrate=8283.2kbits/s speed=0.258x    
video:10047kB audio:0kB subtitle:0kB other streams:0kB global headers:0kB muxing overhead: 0.044439%
bench: utime=133.204s
bench: maxrss=1598588kB
[libx264 @ 0x2d471c0] frame I:2     Avg QP:37.96  size:260773
[libx264 @ 0x2d471c0] frame P:126   Avg QP:48.04  size: 33698
[libx264 @ 0x2d471c0] frame B:372   Avg QP:50.00  size: 14839
[libx264 @ 0x2d471c0] consecutive B-frames:  0.8%  0.0%  0.0% 99.2%
[libx264 @ 0x2d471c0] mb I  I16..4: 24.6% 65.4% 10.0%
[libx264 @ 0x2d471c0] mb P  I16..4:  3.4%  4.6%  0.0%  P16..4: 26.4%  2.8%  1.5%  0.0%  0.0%    skip:61.2%
[libx264 @ 0x2d471c0] mb B  I16..4:  1.6%  1.5%  0.0%  B16..8: 13.7%  0.9%  0.0%  direct: 6.6%  skip:75.7%  L0:44.4% L1:54.7% BI: 0.8%
[libx264 @ 0x2d471c0] final ratefactor: 41.24
[libx264 @ 0x2d471c0] 8x8 transform intra:54.1% inter:94.3%
[libx264 @ 0x2d471c0] coded y,uvDC,uvAC intra: 13.7% 48.9% 10.1% inter: 2.6% 6.8% 0.1%
[libx264 @ 0x2d471c0] i16 v,h,dc,p: 49% 24% 12% 15%
[libx264 @ 0x2d471c0] i8 v,h,dc,ddl,ddr,vr,hd,vl,hu: 13%  9% 52%  5%  4%  5%  4%  5%  3%
[libx264 @ 0x2d471c0] i4 v,h,dc,ddl,ddr,vr,hd,vl,hu: 22% 17% 12%  9%  9%  9%  8%  7%  7%
[libx264 @ 0x2d471c0] i8c dc,h,v,p: 87%  5%  8%  1%
[libx264 @ 0x2d471c0] Weighted P-Frames: Y:1.6% UV:0.0%
[libx264 @ 0x2d471c0] ref P L0: 67.5% 32.5%
[libx264 @ 0x2d471c0] ref B L0: 86.3% 13.7%
[libx264 @ 0x2d471c0] ref B L1: 96.7%  3.3%
[libx264 @ 0x2d471c0] kb/s:8230.13
